<svg width="303" height="257" viewBox="0 0 303 257" fill="none" xmlns="http://www.w3.org/2000/svg">
<path d="M43.52 64.096H32.768V59.232C32.768 52.96 30.08 48.992 23.68 48.992C17.536 48.992 14.72 52.832 14.72 57.824V61.152C14.72 64.864 15.744 67.04 19.712 70.24C25.472 74.72 34.176 79.328 38.912 83.552C42.88 87.008 45.056 91.104 45.056 98.912V104.16C45.056 117.472 38.784 124.768 23.936 124.768C9.088 124.768 2.944 117.344 2.944 103.392V98.528H13.824V103.52C13.824 110.432 16.768 114.144 23.68 114.144C29.696 114.144 33.024 111.2 33.024 104.416V100.576C33.024 95.328 31.744 93.152 27.52 89.824C21.632 84.96 15.104 81.76 9.856 76.64C5.632 72.288 3.328 67.808 3.328 61.024V57.312C3.328 46.048 9.472 38.24 23.552 38.24C39.04 38.24 43.52 47.584 43.52 60.384V64.096ZM91.952 124H80.688L77.36 104.032H61.744L58.672 124H47.536L62 39.008H77.488L91.952 124ZM69.296 56.928L63.28 94.176H75.824L69.808 56.928H69.296ZM108.345 124H97.081V39.008H120.761C132.665 39.008 136.889 45.28 136.889 56.032V67.68C136.889 75.488 133.689 80.096 128.185 81.504V82.016C134.201 83.168 137.145 87.264 137.145 95.712V124H125.881V94.816C125.881 89.312 124.217 87.008 118.713 87.008H108.345V124ZM125.753 68.704V57.312C125.753 52.064 123.577 49.376 118.201 49.376H108.345V77.408H118.329C122.937 77.408 125.753 75.232 125.753 68.704ZM157.533 124H146.269L140.637 39.008H147.677L151.773 108.384H152.285L156.381 39.008H163.293L157.533 124ZM181.539 124H165.411V39.008H181.027V45.536H172.451V76.256H180.131V82.656H172.451V117.6H181.539V124ZM200.423 124H183.911V39.008H191.079V117.472H200.423V124ZM210.204 124H203.036V39.008H210.204V124ZM234.918 124H227.878L226.598 102.112H220.326L219.174 124H212.262L217.894 39.008H229.158L234.918 124ZM223.27 51.296L220.71 95.968H226.214L223.782 51.296H223.27ZM259.052 124H249.708L243.052 55.904H242.54C242.796 60.128 242.796 66.016 242.796 87.008V124H237.036V39.008H247.276L252.908 106.464H253.42C253.292 101.216 253.036 93.792 253.036 69.088V39.008H259.052V124ZM275.473 114.016V89.312H282.257V113.632C282.257 120.928 278.801 124.384 272.401 124.384C265.617 124.384 262.161 120.544 262.161 113.504V49.76C262.161 42.592 265.489 38.624 272.529 38.624C278.673 38.624 282.257 41.696 282.257 49.888V69.472H275.473V49.248C275.473 46.688 274.449 45.28 272.401 45.28C270.225 45.28 269.201 46.688 269.201 49.12V113.888C269.201 116.704 270.225 117.856 272.273 117.856C274.449 117.856 275.473 116.576 275.473 114.016ZM301.414 124H285.286V39.008H300.902V45.536H292.326V76.256H300.006V82.656H292.326V117.6H301.414V124Z" fill="#FFF30F"/>
<path d="M37.92 204.32L40.48 189.76C58.4 189.76 65.12 178.72 65.12 170.88C65.12 162.24 61.6 158.88 53.76 158.88C45.76 158.88 38.56 165.28 36.48 176.32H17.12C20.8 156 37.28 142.24 57.44 142.24C73.92 142.24 85.76 152.32 85.76 167.04C85.76 177.76 79.68 189.28 68.64 195.04C76.16 198.4 80.48 205.6 80.48 215.68C80.48 239.84 61.44 255.68 36.32 255.68C17.12 255.68 6.72 245.76 6.72 228.96C6.72 226.4 7.04 223.68 7.52 220.8H27.52C27.2 223.04 26.88 225.12 26.88 226.88C26.88 235.68 31.68 238.56 40.32 238.56C50.4 238.56 59.04 230.4 59.04 217.12C59.04 207.04 52.8 204.32 37.92 204.32ZM115.045 252H92.805L96.645 230.4H118.885L115.045 252ZM158.481 252H137.681L150.641 178.56H128.881L131.441 164.16C149.681 164.16 156.881 158.08 160.241 145.76H177.201L158.481 252Z" fill="#FFF30F"/>
<path d="M231.021 196.56C229.424 196.56 228.226 195.762 227.428 194.564L203.471 154.636C202.673 153.039 203.072 151.042 204.27 149.845C205.468 148.647 207.464 148.248 209.061 149.046L248.989 173.003C250.187 173.801 250.985 174.999 250.985 176.596C250.985 187.776 242.201 196.56 231.021 196.56Z" fill="#FFF30F"/>
<path d="M286.122 230.499C273.745 242.477 257.374 249.265 240.205 249.265C237.011 249.265 234.216 248.866 231.421 248.466C231.421 249.664 231.022 251.261 231.022 252.459C231.022 254.855 232.619 256.452 235.015 256.452H290.914C293.309 256.452 294.906 254.855 294.906 252.459C294.906 244.074 291.712 236.089 286.122 230.499Z" fill="#FFF30F"/>
<path d="M280.931 142.258C270.949 132.276 246.992 140.262 224.233 161.823C222.636 163.42 222.636 165.816 224.233 167.413C225.83 169.01 228.226 169.01 229.823 167.413C249.787 148.647 269.751 141.859 275.341 147.848C281.33 153.838 273.345 175.798 252.981 196.161C233.017 216.524 211.057 224.51 205.068 218.521C199.877 213.33 204.669 195.362 222.237 175.399C223.834 173.801 223.435 171.406 221.838 169.809C220.241 168.212 217.446 168.611 216.248 170.208C196.683 192.168 189.496 214.528 199.478 224.11C210.259 234.891 225.032 240.88 240.204 240.88C255.377 240.88 270.15 234.891 280.931 224.11C303.69 201.352 303.69 165.017 280.931 142.258Z" fill="#FFF30F"/>
</svg>
